<?xml version="1.0" encoding="iso-8859-1"?>
<!-- Generator: Adobe Illustrator 16.0.0, SVG Export Plug-In . SVG Version: 6.00 Build 0)  -->
<!DOCTYPE svg PUBLIC "-//W3C//DTD SVG 1.1//EN" "http://www.w3.org/Graphics/SVG/1.1/DTD/svg11.dtd">
<svg version="1.1" id="Capa_1" xmlns="http://www.w3.org/2000/svg" xmlns:xlink="http://www.w3.org/1999/xlink" x="0px" y="0px"
	 width="25.609px" height="28.265px" viewBox="0 0 25.609 28.265" style="enable-background:new 0 0 25.609 28.265;"
	 xml:space="preserve">
<path d="M12.805,28.265C5.744,28.265,0,22.515,0,15.456C0,8.396,5.744,2.649,12.805,2.649c0.469,0,0.943,0.027,1.414,0.08v-2.07
	c0-0.266,0.164-0.508,0.406-0.611c0.252-0.098,0.531-0.043,0.723,0.148l4.537,4.547c0.258,0.258,0.258,0.67,0,0.932l-4.535,4.557
	c-0.193,0.188-0.473,0.246-0.725,0.143c-0.242-0.104-0.406-0.344-0.406-0.609V7.47c-0.469-0.086-0.941-0.125-1.414-0.125
	c-4.473,0-8.113,3.639-8.113,8.111c0,4.471,3.641,8.113,8.113,8.113s8.111-3.643,8.111-8.113c0-0.363,0.295-0.66,0.662-0.66h3.369
	c0.365,0,0.662,0.297,0.662,0.66C25.609,22.515,19.861,28.265,12.805,28.265z" fill="#ffffff"/>
<g>
</g>
<g>
</g>
<g>
</g>
<g>
</g>
<g>
</g>
<g>
</g>
<g>
</g>
<g>
</g>
<g>
</g>
<g>
</g>
<g>
</g>
<g>
</g>
<g>
</g>
<g>
</g>
<g>
</g>
</svg>
